<?xml version="1.0" encoding="UTF-8"?>
<svg width="1200pt" height="1200pt" version="1.1" viewBox="0 0 1200 1200" xmlns="http://www.w3.org/2000/svg">
 <path d="m687.1 71.977c59.621 1.75 106.54 51.5 104.79 111.12-1.75 59.621-51.5 106.54-111.12 104.79-59.621-1.7461-106.54-51.496-104.79-111.12 1.75-59.621 51.5-106.54 111.12-104.79"/>
 <path d="m468 260.64c51.359-35.398 66.719-66.961 93.602-77.398v-3.3594c0-7.5586 0.71875-15 2.0391-22.078-48.961-19.32-93.961 22.199-120.6 55.199-29.039 36-75.48 12.238-75.48 12.238s40.68 76.68 100.44 35.398z"/>
 <path d="m333.96 582.12c7.3203 5.1602 15.719 7.6797 24 7.6797 13.078 0 25.922-6.1211 34.078-17.641l96.238-136.08 80.762-16.559-11.281 104.52c-1.6797 15.602-7.9219 30.238-18 42.238l-13.801 16.441c-16.078 19.078-23.039 44.16-19.078 68.762 3.9609 24.602 18.238 46.32 39.48 59.52l200.52 124.92 85.68 253.44c7.9219 23.641 30 38.52 53.641 38.52 6 0 12.121-0.96094 18.121-3 29.641-9.9609 45.48-42.121 35.52-71.762l-92.16-272.64c-4.1992-12.359-12.602-23.039-23.641-29.879l-149.04-92.879c0.48047-3.1211 0.83984-6.3594 0.83984-9.6016v-27.359c0-26.52 2.8789-53.039 8.5195-78.84l9.2383-42.121c15.961-8.7617 28.32-23.16 34.559-40.922l58.078 44.879c19.32 14.879 46.68 15.359 66.359 0.83984l147.48-107.76c18.602-13.559 22.68-39.602 9.1211-58.199-13.559-18.602-39.602-22.68-58.199-9.1211l-130.44 95.281-106.56-82.32c-25.078-19.32-58.078-26.641-89.039-19.68-4.0781 0.35938-8.1602 1.1992-12.121 2.5195l-151.92 31.078c-13.801 2.8789-25.922 10.68-34.078 22.199l-102.6 145.08c-13.32 18.84-8.8789 44.762 9.9609 58.078z"/>
 <path d="m212.4 824.88 224.28 122.76c8.6406 4.6797 17.879 6.9609 27.121 6.9609 19.68 0 38.879-10.32 49.32-28.68l89.281-157.44-68.039-42.359c-9.8398-6.1211-18.238-14.16-24.719-23.398l-67.441 118.92-175.32-96c-27.359-15-61.801-4.9219-76.801 22.441-15 27.359-4.9219 61.801 22.441 76.801z"/>
</svg>
