<?xml version="1.0" encoding="UTF-8"?>
<svg width="1200pt" height="1200pt" version="1.1" viewBox="0 0 1200 1200" xmlns="http://www.w3.org/2000/svg">
 <path d="m824.76 171.96c0 55.207-44.754 99.961-99.961 99.961s-99.961-44.754-99.961-99.961c0-55.207 44.754-99.961 99.961-99.961s99.961 44.754 99.961 99.961"/>
 <path d="m283.56 570.36c21.48 15.48 51.359 10.922 67.32-10.32l99.359-132.48 114.24-23.281-99.961 225.84c-11.039 24.84-4.0781 54 17.039 71.16l165.96 135.72-81.359 208.56c-12.121 31.078 3.2383 66.121 34.32 78.238 7.1992 2.7617 14.641 4.1992 21.961 4.1992 24.121 0 46.922-14.641 56.281-38.398l97.32-249.48c9.4805-24.359 2.2812-52.078-18-68.641l-139.44-114 87-200.88 54.84 110.52c8.1602 16.559 25.078 27 43.559 27h156.48c26.52 0 48.121-21.238 48.602-47.641 0.48047-27.238-22.32-49.559-49.559-49.559h-125.4l-49.559-99.84c-18.84-38.039-50.762-68.039-89.879-84.602l-3.4805-1.4414c-32.879-13.922-69.238-17.52-104.28-10.32l-174 35.398c-11.641 2.3984-22.078 9-29.16 18.48l-109.92 146.52c-16.32 21.84-12.238 53.398 9.9609 69.359z"/>
 <path d="m251.4 901.8h223.56c23.762 0 45.359-13.922 55.078-35.641l30.359-67.559-94.68-77.52c-0.71875-0.60156-1.4414-1.1992-2.0391-1.8008l-27.719 61.68h-184.56c-33.359 0-60.359 27-60.359 60.359 0 33.359 27 60.359 60.359 60.359z"/>
</svg>
